<?xml version="1.0" encoding="utf-8"?>
<!-- Generator: Adobe Illustrator 19.2.0, SVG Export Plug-In . SVG Version: 6.00 Build 0)  -->
<svg version="1.1" id="Layer_1" xmlns="http://www.w3.org/2000/svg" xmlns:xlink="http://www.w3.org/1999/xlink" x="0px" y="0px"
	 viewBox="0 0 93.2 62.1" style="enable-background:new 0 0 93.2 62.1;" xml:space="preserve">
<style type="text/css">
	.st0{fill:#dac7a1;}
</style>
<g id="XMLID_338_">
	<path id="XMLID_339_" class="st0" d="M79.6,57.3c-9.9-2.3-21.4-3.7-33.7-3.7s-23.8,1.3-33.7,3.7c0.5,1.9,0.8,3.2,1.1,4.8
		c0,0,17.8-3.5,32.6-3.5s32.6,3.5,32.6,3.5C78.8,60.6,79.1,59.6,79.6,57.3z"/>
</g>
<path class="st0" d="M85.2,23.9c0,0-0.6-2.7-3.1-1.8c-2.7,0.9-1.9,5.2-1.9,5.2c-2.2-1.8-3.5,0.1-3.5,0.1s4.5,4,0.2,9.5
	S68.1,40,68.1,40s-4.4-3.4-0.5-5.9s6.5,1.4,6.5,1.4c4.1-7.4-4.4-8.3-4.4-8.3c2.4-3.8,0.9-7.1-0.3-8.7c1.5,0,2.7-1.2,2.7-2.7
	s-1.2-2.7-2.7-2.7s-2.7,1.2-2.7,2.7c0,0.8,0.3,1.5,0.9,2c-5.9,3.1-5.1,7.6-5.1,7.6c-8.2-4.3-7.9,4.6-7.9,4.6
	c2.2-1.8,4.7-0.1,4.7-0.1s3.4,3.3,0.5,6.1c-2.9,2.9-6,0.8-6,0.8s-2.5-0.2-3-6.3s4.7-9.2,4.7-9.2c-0.7-0.6-2.5-1.4-2.5-1.4
	c1.7-0.4,4-2.8,2.8-5.2c-1.3-2.4-5.2-1.4-5.2-1.4c2.3-3.2-1.8-7.4-3.6-9c0.9-0.3,1.5-1.1,1.5-2.1c0-1.2-1-2.2-2.2-2.2
	s-2.2,1-2.2,2.2c0,0.9,0.6,1.7,1.4,2c-1.8,1.6-6,5.9-3.6,9.1c0,0-4-1-5.2,1.4c-1.3,2.4,1,4.9,2.8,5.2c0,0-1.8,0.8-2.5,1.4
	c0,0,5.2,3.1,4.7,9.2s-3,6.3-3,6.3s-3.1,2.1-6-0.8c-2.9-2.9,0.5-6.1,0.5-6.1s2.4-1.7,4.7,0.1c0,0,0.2-8.9-7.9-4.6c0,0,0.7-4.4-5-7.5
	c0.6-0.5,1-1.2,1-2.1c0-1.5-1.2-2.7-2.7-2.7s-2.7,1.2-2.7,2.7c0,1.4,1.1,2.6,2.5,2.7c-1.2,1.7-2.7,4.9-0.3,8.7c0,0-8.6,0.9-4.4,8.3
	c0,0,2.6-3.9,6.5-1.4S24.4,40,24.4,40s-4.4,2.5-8.8-3.1c-4.4-5.5,0.2-9.5,0.2-9.5s-1.4-1.8-3.5-0.1c0,0,0.8-4.2-1.9-5.2
	c-2.5-0.9-3.1,1.8-3.1,1.8S6.5,20.5,0,20.6c0,0,5.1,4,12,32.3c10.2-2.4,22-3.8,34.6-3.8s24.4,1.4,34.6,3.8c7.3-31.6,12-32.3,12-32.3
	C86,20.5,85.2,23.9,85.2,23.9z M14.1,48.9c-0.2,0.2-0.5,0.3-0.8,0.3s-0.6-0.1-0.8-0.3s-0.3-0.5-0.3-0.8s0.1-0.5,0.3-0.8
	c0.4-0.4,1.1-0.4,1.5,0c0.2,0.2,0.3,0.5,0.3,0.8C14.4,48.4,14.3,48.7,14.1,48.9z M21.6,48.1h-0.1c-0.5,0-1-0.4-1.1-0.9
	c-0.1-0.6,0.3-1.2,0.9-1.2c0.6-0.1,1.1,0.3,1.2,0.9C22.6,47.4,22.2,48,21.6,48.1z M29.7,47h-0.1c-0.5,0-1-0.4-1.1-1s0.3-1.2,1-1.2
	c0.6-0.1,1.1,0.3,1.2,1C30.7,46.4,30.3,46.9,29.7,47z M37.8,46.2C37.8,46.2,37.7,46.2,37.8,46.2c-0.7,0-1.1-0.4-1.2-1
	c0-0.6,0.4-1.1,1-1.2c0.6,0,1.1,0.4,1.2,1S38.4,46.2,37.8,46.2z M45.9,45.9L45.9,45.9c-0.6,0-1.1-0.5-1.1-1.1s0.5-1.1,1.1-1.1
	s1.1,0.5,1.1,1.1C47,45.5,46.5,45.9,45.9,45.9z M54.1,46.4L54.1,46.4c-0.7,0-1.1-0.6-1.1-1.2c0-0.6,0.6-1,1.2-1c0.6,0,1,0.6,1,1.2
	C55.1,45.9,54.6,46.4,54.1,46.4z M62.3,47.3c0,0-0.1,0-0.2,0c-0.6-0.1-1-0.6-0.9-1.2c0.1-0.6,0.6-1,1.2-0.9c0.6,0.1,1,0.6,0.9,1.2
	C63.3,46.9,62.8,47.3,62.3,47.3z M70.4,48.4c-0.1,0-0.1,0-0.2,0c-0.6-0.1-1-0.6-0.9-1.2c0.1-0.6,0.6-1,1.2-0.9s1,0.6,0.9,1.2
	C71.4,48,70.9,48.4,70.4,48.4z M79.3,49.2c-0.2,0.2-0.5,0.3-0.8,0.3s-0.5-0.1-0.8-0.3c-0.2-0.2-0.3-0.5-0.3-0.8s0.1-0.6,0.3-0.8
	c0.4-0.4,1.1-0.4,1.5,0c0.2,0.2,0.3,0.5,0.3,0.8C79.6,48.7,79.5,49,79.3,49.2z"/>
</svg>
